<?xml version="1.0" encoding="utf-8"?>
<svg xmlns="http://www.w3.org/2000/svg" xmlns:xlink="http://www.w3.org/1999/xlink" width="528" height="336" viewBox="0 0 2112 1344">
<defs>
  <clipPath id="clip330">
    <rect x="0" y="0" width="2112" height="1344"/>
  </clipPath>
</defs>
<path clip-path="url(#clip330)" d="M0 1344 L2112 1344 L2112 0 L0 0  Z" fill="#ffffff" fill-rule="evenodd" fill-opacity="1"/>
<defs>
  <clipPath id="clip331">
    <rect x="422" y="0" width="1479" height="1344"/>
  </clipPath>
</defs>
<path clip-path="url(#clip330)" d="M227.349 1173.47 L2064.76 1173.47 L2064.76 120.723 L227.349 120.723  Z" fill="#ffffff" fill-rule="evenodd" fill-opacity="1"/>
<defs>
  <clipPath id="clip332">
    <rect x="227" y="120" width="1838" height="1054"/>
  </clipPath>
</defs>
<polyline clip-path="url(#clip332)" style="stroke:#000000; stroke-linecap:round; stroke-linejoin:round; stroke-width:2; stroke-opacity:0.1; fill:none" points="279.351,1173.47 279.351,120.723 "/>
<polyline clip-path="url(#clip332)" style="stroke:#000000; stroke-linecap:round; stroke-linejoin:round; stroke-width:2; stroke-opacity:0.1; fill:none" points="712.702,1173.47 712.702,120.723 "/>
<polyline clip-path="url(#clip332)" style="stroke:#000000; stroke-linecap:round; stroke-linejoin:round; stroke-width:2; stroke-opacity:0.1; fill:none" points="1146.05,1173.47 1146.05,120.723 "/>
<polyline clip-path="url(#clip332)" style="stroke:#000000; stroke-linecap:round; stroke-linejoin:round; stroke-width:2; stroke-opacity:0.1; fill:none" points="1579.4,1173.47 1579.4,120.723 "/>
<polyline clip-path="url(#clip332)" style="stroke:#000000; stroke-linecap:round; stroke-linejoin:round; stroke-width:2; stroke-opacity:0.1; fill:none" points="2012.75,1173.47 2012.75,120.723 "/>
<polyline clip-path="url(#clip332)" style="stroke:#000000; stroke-linecap:round; stroke-linejoin:round; stroke-width:2; stroke-opacity:0.1; fill:none" points="227.349,1143.68 2064.76,1143.68 "/>
<polyline clip-path="url(#clip332)" style="stroke:#000000; stroke-linecap:round; stroke-linejoin:round; stroke-width:2; stroke-opacity:0.1; fill:none" points="227.349,895.386 2064.76,895.386 "/>
<polyline clip-path="url(#clip332)" style="stroke:#000000; stroke-linecap:round; stroke-linejoin:round; stroke-width:2; stroke-opacity:0.1; fill:none" points="227.349,647.097 2064.76,647.097 "/>
<polyline clip-path="url(#clip332)" style="stroke:#000000; stroke-linecap:round; stroke-linejoin:round; stroke-width:2; stroke-opacity:0.1; fill:none" points="227.349,398.807 2064.76,398.807 "/>
<polyline clip-path="url(#clip332)" style="stroke:#000000; stroke-linecap:round; stroke-linejoin:round; stroke-width:2; stroke-opacity:0.1; fill:none" points="227.349,150.518 2064.76,150.518 "/>
<polyline clip-path="url(#clip330)" style="stroke:#000000; stroke-linecap:round; stroke-linejoin:round; stroke-width:4; stroke-opacity:1; fill:none" points="227.349,1173.47 2064.76,1173.47 "/>
<polyline clip-path="url(#clip330)" style="stroke:#000000; stroke-linecap:round; stroke-linejoin:round; stroke-width:4; stroke-opacity:1; fill:none" points="279.351,1173.47 279.351,1154.57 "/>
<polyline clip-path="url(#clip330)" style="stroke:#000000; stroke-linecap:round; stroke-linejoin:round; stroke-width:4; stroke-opacity:1; fill:none" points="712.702,1173.47 712.702,1154.57 "/>
<polyline clip-path="url(#clip330)" style="stroke:#000000; stroke-linecap:round; stroke-linejoin:round; stroke-width:4; stroke-opacity:1; fill:none" points="1146.05,1173.47 1146.05,1154.57 "/>
<polyline clip-path="url(#clip330)" style="stroke:#000000; stroke-linecap:round; stroke-linejoin:round; stroke-width:4; stroke-opacity:1; fill:none" points="1579.4,1173.47 1579.4,1154.57 "/>
<polyline clip-path="url(#clip330)" style="stroke:#000000; stroke-linecap:round; stroke-linejoin:round; stroke-width:4; stroke-opacity:1; fill:none" points="2012.75,1173.47 2012.75,1154.57 "/>
<path clip-path="url(#clip330)" d="M233.414 1216.74 L263.09 1216.74 L263.09 1220.67 L233.414 1220.67 L233.414 1216.74 Z" fill="#000000" fill-rule="nonzero" fill-opacity="1" /><path clip-path="url(#clip330)" d="M273.993 1229.63 L281.631 1229.63 L281.631 1203.27 L273.321 1204.93 L273.321 1200.67 L281.585 1199.01 L286.261 1199.01 L286.261 1229.63 L293.9 1229.63 L293.9 1233.57 L273.993 1233.57 L273.993 1229.63 Z" fill="#000000" fill-rule="nonzero" fill-opacity="1" /><path clip-path="url(#clip330)" d="M313.344 1202.09 Q309.733 1202.09 307.905 1205.65 Q306.099 1209.19 306.099 1216.32 Q306.099 1223.43 307.905 1226.99 Q309.733 1230.53 313.344 1230.53 Q316.979 1230.53 318.784 1226.99 Q320.613 1223.43 320.613 1216.32 Q320.613 1209.19 318.784 1205.65 Q316.979 1202.09 313.344 1202.09 M313.344 1198.38 Q319.154 1198.38 322.21 1202.99 Q325.289 1207.57 325.289 1216.32 Q325.289 1225.05 322.21 1229.65 Q319.154 1234.24 313.344 1234.24 Q307.534 1234.24 304.455 1229.65 Q301.4 1225.05 301.4 1216.32 Q301.4 1207.57 304.455 1202.99 Q307.534 1198.38 313.344 1198.38 Z" fill="#000000" fill-rule="nonzero" fill-opacity="1" /><path clip-path="url(#clip330)" d="M682.343 1216.74 L712.019 1216.74 L712.019 1220.67 L682.343 1220.67 L682.343 1216.74 Z" fill="#000000" fill-rule="nonzero" fill-opacity="1" /><path clip-path="url(#clip330)" d="M722.158 1199.01 L740.514 1199.01 L740.514 1202.94 L726.44 1202.94 L726.44 1211.41 Q727.459 1211.07 728.477 1210.9 Q729.496 1210.72 730.514 1210.72 Q736.301 1210.72 739.681 1213.89 Q743.061 1217.06 743.061 1222.48 Q743.061 1228.06 739.588 1231.16 Q736.116 1234.24 729.797 1234.24 Q727.621 1234.24 725.352 1233.87 Q723.107 1233.5 720.7 1232.76 L720.7 1228.06 Q722.783 1229.19 725.005 1229.75 Q727.227 1230.3 729.704 1230.3 Q733.709 1230.3 736.047 1228.2 Q738.385 1226.09 738.385 1222.48 Q738.385 1218.87 736.047 1216.76 Q733.709 1214.65 729.704 1214.65 Q727.829 1214.65 725.954 1215.07 Q724.102 1215.49 722.158 1216.37 L722.158 1199.01 Z" fill="#000000" fill-rule="nonzero" fill-opacity="1" /><path clip-path="url(#clip330)" d="M1146.05 1202.09 Q1142.44 1202.09 1140.61 1205.65 Q1138.81 1209.19 1138.81 1216.32 Q1138.81 1223.43 1140.61 1226.99 Q1142.44 1230.53 1146.05 1230.53 Q1149.69 1230.53 1151.49 1226.99 Q1153.32 1223.43 1153.32 1216.32 Q1153.32 1209.19 1151.49 1205.65 Q1149.69 1202.09 1146.05 1202.09 M1146.05 1198.38 Q1151.86 1198.38 1154.92 1202.99 Q1158 1207.57 1158 1216.32 Q1158 1225.05 1154.92 1229.65 Q1151.86 1234.24 1146.05 1234.24 Q1140.24 1234.24 1137.16 1229.65 Q1134.11 1225.05 1134.11 1216.32 Q1134.11 1207.57 1137.16 1202.99 Q1140.24 1198.38 1146.05 1198.38 Z" fill="#000000" fill-rule="nonzero" fill-opacity="1" /><path clip-path="url(#clip330)" d="M1569.68 1199.01 L1588.04 1199.01 L1588.04 1202.94 L1573.96 1202.94 L1573.96 1211.41 Q1574.98 1211.07 1576 1210.9 Q1577.02 1210.72 1578.04 1210.72 Q1583.82 1210.72 1587.2 1213.89 Q1590.58 1217.06 1590.58 1222.48 Q1590.58 1228.06 1587.11 1231.16 Q1583.64 1234.24 1577.32 1234.24 Q1575.14 1234.24 1572.88 1233.87 Q1570.63 1233.5 1568.22 1232.76 L1568.22 1228.06 Q1570.31 1229.19 1572.53 1229.75 Q1574.75 1230.3 1577.23 1230.3 Q1581.23 1230.3 1583.57 1228.2 Q1585.91 1226.09 1585.91 1222.48 Q1585.91 1218.87 1583.57 1216.76 Q1581.23 1214.65 1577.23 1214.65 Q1575.35 1214.65 1573.48 1215.07 Q1571.63 1215.49 1569.68 1216.37 L1569.68 1199.01 Z" fill="#000000" fill-rule="nonzero" fill-opacity="1" /><path clip-path="url(#clip330)" d="M1987.44 1229.63 L1995.08 1229.63 L1995.08 1203.27 L1986.77 1204.93 L1986.77 1200.67 L1995.03 1199.01 L1999.71 1199.01 L1999.71 1229.63 L2007.35 1229.63 L2007.35 1233.57 L1987.44 1233.57 L1987.44 1229.63 Z" fill="#000000" fill-rule="nonzero" fill-opacity="1" /><path clip-path="url(#clip330)" d="M2026.79 1202.09 Q2023.18 1202.09 2021.35 1205.65 Q2019.55 1209.19 2019.55 1216.32 Q2019.55 1223.43 2021.35 1226.99 Q2023.18 1230.53 2026.79 1230.53 Q2030.43 1230.53 2032.23 1226.99 Q2034.06 1223.43 2034.06 1216.32 Q2034.06 1209.19 2032.23 1205.65 Q2030.43 1202.09 2026.79 1202.09 M2026.79 1198.38 Q2032.6 1198.38 2035.66 1202.99 Q2038.74 1207.57 2038.74 1216.32 Q2038.74 1225.05 2035.66 1229.65 Q2032.6 1234.24 2026.79 1234.24 Q2020.98 1234.24 2017.9 1229.65 Q2014.85 1225.05 2014.85 1216.32 Q2014.85 1207.57 2017.9 1202.99 Q2020.98 1198.38 2026.79 1198.38 Z" fill="#000000" fill-rule="nonzero" fill-opacity="1" /><path clip-path="url(#clip330)" d="M1162.67 1278.37 L1149.78 1295.71 L1163.34 1314.01 L1156.43 1314.01 L1146.05 1300.01 L1135.68 1314.01 L1128.77 1314.01 L1142.62 1295.36 L1129.95 1278.37 L1136.85 1278.37 L1146.31 1291.07 L1155.76 1278.37 L1162.67 1278.37 Z" fill="#000000" fill-rule="nonzero" fill-opacity="1" /><polyline clip-path="url(#clip330)" style="stroke:#000000; stroke-linecap:round; stroke-linejoin:round; stroke-width:4; stroke-opacity:1; fill:none" points="227.349,1173.47 227.349,120.723 "/>
<polyline clip-path="url(#clip330)" style="stroke:#000000; stroke-linecap:round; stroke-linejoin:round; stroke-width:4; stroke-opacity:1; fill:none" points="227.349,1143.68 246.247,1143.68 "/>
<polyline clip-path="url(#clip330)" style="stroke:#000000; stroke-linecap:round; stroke-linejoin:round; stroke-width:4; stroke-opacity:1; fill:none" points="227.349,895.386 246.247,895.386 "/>
<polyline clip-path="url(#clip330)" style="stroke:#000000; stroke-linecap:round; stroke-linejoin:round; stroke-width:4; stroke-opacity:1; fill:none" points="227.349,647.097 246.247,647.097 "/>
<polyline clip-path="url(#clip330)" style="stroke:#000000; stroke-linecap:round; stroke-linejoin:round; stroke-width:4; stroke-opacity:1; fill:none" points="227.349,398.807 246.247,398.807 "/>
<polyline clip-path="url(#clip330)" style="stroke:#000000; stroke-linecap:round; stroke-linejoin:round; stroke-width:4; stroke-opacity:1; fill:none" points="227.349,150.518 246.247,150.518 "/>
<path clip-path="url(#clip330)" d="M183.725 1129.47 Q180.114 1129.47 178.285 1133.04 Q176.48 1136.58 176.48 1143.71 Q176.48 1150.82 178.285 1154.38 Q180.114 1157.92 183.725 1157.92 Q187.359 1157.92 189.165 1154.38 Q190.993 1150.82 190.993 1143.71 Q190.993 1136.58 189.165 1133.04 Q187.359 1129.47 183.725 1129.47 M183.725 1125.77 Q189.535 1125.77 192.591 1130.38 Q195.669 1134.96 195.669 1143.71 Q195.669 1152.44 192.591 1157.04 Q189.535 1161.63 183.725 1161.63 Q177.915 1161.63 174.836 1157.04 Q171.781 1152.44 171.781 1143.71 Q171.781 1134.96 174.836 1130.38 Q177.915 1125.77 183.725 1125.77 Z" fill="#000000" fill-rule="nonzero" fill-opacity="1" /><path clip-path="url(#clip330)" d="M148.586 908.731 L164.906 908.731 L164.906 912.666 L142.961 912.666 L142.961 908.731 Q145.623 905.977 150.207 901.347 Q154.813 896.694 155.994 895.352 Q158.239 892.829 159.119 891.092 Q160.021 889.333 160.021 887.643 Q160.021 884.889 158.077 883.153 Q156.156 881.417 153.054 881.417 Q150.855 881.417 148.401 882.181 Q145.971 882.944 143.193 884.495 L143.193 879.773 Q146.017 878.639 148.471 878.06 Q150.924 877.481 152.961 877.481 Q158.332 877.481 161.526 880.167 Q164.72 882.852 164.72 887.343 Q164.72 889.472 163.91 891.393 Q163.123 893.292 161.017 895.884 Q160.438 896.555 157.336 899.773 Q154.234 902.967 148.586 908.731 Z" fill="#000000" fill-rule="nonzero" fill-opacity="1" /><path clip-path="url(#clip330)" d="M174.767 878.106 L193.123 878.106 L193.123 882.042 L179.049 882.042 L179.049 890.514 Q180.068 890.167 181.086 890.005 Q182.105 889.819 183.123 889.819 Q188.91 889.819 192.29 892.991 Q195.669 896.162 195.669 901.579 Q195.669 907.157 192.197 910.259 Q188.725 913.338 182.406 913.338 Q180.23 913.338 177.961 912.967 Q175.716 912.597 173.308 911.856 L173.308 907.157 Q175.392 908.291 177.614 908.847 Q179.836 909.403 182.313 909.403 Q186.318 909.403 188.655 907.296 Q190.993 905.19 190.993 901.579 Q190.993 897.967 188.655 895.861 Q186.318 893.755 182.313 893.755 Q180.438 893.755 178.563 894.171 Q176.711 894.588 174.767 895.467 L174.767 878.106 Z" fill="#000000" fill-rule="nonzero" fill-opacity="1" /><path clip-path="url(#clip330)" d="M143.609 629.817 L161.966 629.817 L161.966 633.752 L147.892 633.752 L147.892 642.224 Q148.91 641.877 149.929 641.715 Q150.947 641.53 151.966 641.53 Q157.753 641.53 161.132 644.701 Q164.512 647.872 164.512 653.289 Q164.512 658.868 161.04 661.969 Q157.568 665.048 151.248 665.048 Q149.072 665.048 146.804 664.678 Q144.559 664.307 142.151 663.567 L142.151 658.868 Q144.234 660.002 146.457 660.557 Q148.679 661.113 151.156 661.113 Q155.16 661.113 157.498 659.007 Q159.836 656.9 159.836 653.289 Q159.836 649.678 157.498 647.571 Q155.16 645.465 151.156 645.465 Q149.281 645.465 147.406 645.882 Q145.554 646.298 143.609 647.178 L143.609 629.817 Z" fill="#000000" fill-rule="nonzero" fill-opacity="1" /><path clip-path="url(#clip330)" d="M183.725 632.896 Q180.114 632.896 178.285 636.46 Q176.48 640.002 176.48 647.132 Q176.48 654.238 178.285 657.803 Q180.114 661.345 183.725 661.345 Q187.359 661.345 189.165 657.803 Q190.993 654.238 190.993 647.132 Q190.993 640.002 189.165 636.46 Q187.359 632.896 183.725 632.896 M183.725 629.192 Q189.535 629.192 192.591 633.798 Q195.669 638.382 195.669 647.132 Q195.669 655.858 192.591 660.465 Q189.535 665.048 183.725 665.048 Q177.915 665.048 174.836 660.465 Q171.781 655.858 171.781 647.132 Q171.781 638.382 174.836 633.798 Q177.915 629.192 183.725 629.192 Z" fill="#000000" fill-rule="nonzero" fill-opacity="1" /><path clip-path="url(#clip330)" d="M143.378 381.527 L165.6 381.527 L165.6 383.518 L153.054 416.087 L148.17 416.087 L159.975 385.463 L143.378 385.463 L143.378 381.527 Z" fill="#000000" fill-rule="nonzero" fill-opacity="1" /><path clip-path="url(#clip330)" d="M174.767 381.527 L193.123 381.527 L193.123 385.463 L179.049 385.463 L179.049 393.935 Q180.068 393.587 181.086 393.425 Q182.105 393.24 183.123 393.24 Q188.91 393.24 192.29 396.412 Q195.669 399.583 195.669 404.999 Q195.669 410.578 192.197 413.68 Q188.725 416.759 182.406 416.759 Q180.23 416.759 177.961 416.388 Q175.716 416.018 173.308 415.277 L173.308 410.578 Q175.392 411.712 177.614 412.268 Q179.836 412.823 182.313 412.823 Q186.318 412.823 188.655 410.717 Q190.993 408.611 190.993 404.999 Q190.993 401.388 188.655 399.282 Q186.318 397.175 182.313 397.175 Q180.438 397.175 178.563 397.592 Q176.711 398.009 174.767 398.888 L174.767 381.527 Z" fill="#000000" fill-rule="nonzero" fill-opacity="1" /><path clip-path="url(#clip330)" d="M114.211 163.863 L121.85 163.863 L121.85 137.497 L113.54 139.164 L113.54 134.904 L121.804 133.238 L126.48 133.238 L126.48 163.863 L134.119 163.863 L134.119 167.798 L114.211 167.798 L114.211 163.863 Z" fill="#000000" fill-rule="nonzero" fill-opacity="1" /><path clip-path="url(#clip330)" d="M153.563 136.316 Q149.952 136.316 148.123 139.881 Q146.318 143.423 146.318 150.553 Q146.318 157.659 148.123 161.224 Q149.952 164.765 153.563 164.765 Q157.197 164.765 159.003 161.224 Q160.832 157.659 160.832 150.553 Q160.832 143.423 159.003 139.881 Q157.197 136.316 153.563 136.316 M153.563 132.613 Q159.373 132.613 162.429 137.219 Q165.507 141.803 165.507 150.553 Q165.507 159.279 162.429 163.886 Q159.373 168.469 153.563 168.469 Q147.753 168.469 144.674 163.886 Q141.619 159.279 141.619 150.553 Q141.619 141.803 144.674 137.219 Q147.753 132.613 153.563 132.613 Z" fill="#000000" fill-rule="nonzero" fill-opacity="1" /><path clip-path="url(#clip330)" d="M183.725 136.316 Q180.114 136.316 178.285 139.881 Q176.48 143.423 176.48 150.553 Q176.48 157.659 178.285 161.224 Q180.114 164.765 183.725 164.765 Q187.359 164.765 189.165 161.224 Q190.993 157.659 190.993 150.553 Q190.993 143.423 189.165 139.881 Q187.359 136.316 183.725 136.316 M183.725 132.613 Q189.535 132.613 192.591 137.219 Q195.669 141.803 195.669 150.553 Q195.669 159.279 192.591 163.886 Q189.535 168.469 183.725 168.469 Q177.915 168.469 174.836 163.886 Q171.781 159.279 171.781 150.553 Q171.781 141.803 174.836 137.219 Q177.915 132.613 183.725 132.613 Z" fill="#000000" fill-rule="nonzero" fill-opacity="1" /><path clip-path="url(#clip330)" d="M70.9143 645.41 Q77.28 647.893 79.2216 650.248 Q81.1631 652.603 81.1631 656.55 L81.1631 661.229 L76.2615 661.229 L76.2615 657.791 Q76.2615 655.372 75.1157 654.036 Q73.9699 652.699 69.7048 651.075 L67.0312 650.025 L31.9562 664.443 L31.9562 658.237 L59.838 647.097 L31.9562 635.957 L31.9562 629.75 L70.9143 645.41 Z" fill="#000000" fill-rule="nonzero" fill-opacity="1" /><path clip-path="url(#clip330)" d="M798.728 63.9476 L798.728 47.7034 L785.36 47.7034 L785.36 40.9789 L806.83 40.9789 L806.83 66.9452 Q802.09 70.3075 796.379 72.0494 Q790.667 73.7508 784.185 73.7508 Q770.007 73.7508 761.986 65.4869 Q754.006 57.1826 754.006 42.3968 Q754.006 27.5705 761.986 19.3066 Q770.007 11.0023 784.185 11.0023 Q790.1 11.0023 795.406 12.4606 Q800.754 13.9189 805.25 16.7545 L805.25 25.464 Q800.713 21.6156 795.609 19.6712 Q790.505 17.7268 784.874 17.7268 Q773.775 17.7268 768.184 23.9246 Q762.635 30.1225 762.635 42.3968 Q762.635 54.6305 768.184 60.8284 Q773.775 67.0263 784.874 67.0263 Q789.208 67.0263 792.611 66.2971 Q796.014 65.5274 798.728 63.9476 Z" fill="#000000" fill-rule="nonzero" fill-opacity="1" /><path clip-path="url(#clip330)" d="M847.744 34.1734 Q846.488 33.4443 844.989 33.1202 Q843.531 32.7556 841.749 32.7556 Q835.429 32.7556 832.027 36.8875 Q828.664 40.9789 828.664 48.6757 L828.664 72.576 L821.17 72.576 L821.17 27.2059 L828.664 27.2059 L828.664 34.2544 Q831.014 30.1225 834.781 28.1376 Q838.548 26.1121 843.936 26.1121 Q844.706 26.1121 845.638 26.2337 Q846.569 26.3147 847.704 26.5172 L847.744 34.1734 Z" fill="#000000" fill-rule="nonzero" fill-opacity="1" /><path clip-path="url(#clip330)" d="M876.181 49.7694 Q867.148 49.7694 863.664 51.8354 Q860.18 53.9013 860.18 58.8839 Q860.18 62.8538 862.773 65.2034 Q865.406 67.5124 869.902 67.5124 Q876.1 67.5124 879.827 63.1374 Q883.595 58.7219 883.595 51.4303 L883.595 49.7694 L876.181 49.7694 M891.048 46.6907 L891.048 72.576 L883.595 72.576 L883.595 65.6895 Q881.042 69.8214 877.235 71.8063 Q873.427 73.7508 867.918 73.7508 Q860.95 73.7508 856.818 69.8619 Q852.727 65.9325 852.727 59.3701 Q852.727 51.7138 857.831 47.825 Q862.975 43.9361 873.143 43.9361 L883.595 43.9361 L883.595 43.2069 Q883.595 38.0623 880.192 35.2672 Q876.83 32.4315 870.713 32.4315 Q866.824 32.4315 863.137 33.3632 Q859.451 34.295 856.048 36.1584 L856.048 29.2718 Q860.14 27.692 863.988 26.9223 Q867.837 26.1121 871.482 26.1121 Q881.326 26.1121 886.187 31.2163 Q891.048 36.3204 891.048 46.6907 M877.437 6.22219 L885.498 6.22219 L872.293 21.4536 L866.095 21.4536 L877.437 6.22219 Z" fill="#000000" fill-rule="nonzero" fill-opacity="1" /><path clip-path="url(#clip330)" d="M929.37 9.54393 L929.37 15.7418 L922.24 15.7418 Q918.23 15.7418 916.65 17.3622 Q915.111 18.9825 915.111 23.1955 L915.111 27.2059 L927.385 27.2059 L927.385 32.9987 L915.111 32.9987 L915.111 72.576 L907.616 72.576 L907.616 32.9987 L900.487 32.9987 L900.487 27.2059 L907.616 27.2059 L907.616 24.0462 Q907.616 16.471 911.141 13.0277 Q914.665 9.54393 922.321 9.54393 L929.37 9.54393 Z" fill="#000000" fill-rule="nonzero" fill-opacity="1" /><path clip-path="url(#clip330)" d="M935.608 27.2059 L943.062 27.2059 L943.062 72.576 L935.608 72.576 L935.608 27.2059 M935.608 9.54393 L943.062 9.54393 L943.062 18.9825 L935.608 18.9825 L935.608 9.54393 Z" fill="#000000" fill-rule="nonzero" fill-opacity="1" /><path clip-path="url(#clip330)" d="M991.308 28.9478 L991.308 35.9153 Q988.148 34.1734 984.948 33.3227 Q981.788 32.4315 978.548 32.4315 Q971.297 32.4315 967.286 37.0496 Q963.276 41.6271 963.276 49.9314 Q963.276 58.2358 967.286 62.8538 Q971.297 67.4314 978.548 67.4314 Q981.788 67.4314 984.948 66.5807 Q988.148 65.6895 991.308 63.9476 L991.308 70.8341 Q988.189 72.2924 984.827 73.0216 Q981.505 73.7508 977.738 73.7508 Q967.489 73.7508 961.453 67.3098 Q955.417 60.8689 955.417 49.9314 Q955.417 38.832 961.493 32.472 Q967.61 26.1121 978.224 26.1121 Q981.667 26.1121 984.948 26.8413 Q988.229 27.5299 991.308 28.9478 Z" fill="#000000" fill-rule="nonzero" fill-opacity="1" /><path clip-path="url(#clip330)" d="M1021.85 32.4315 Q1015.86 32.4315 1012.37 37.1306 Q1008.89 41.7891 1008.89 49.9314 Q1008.89 58.0738 1012.33 62.7728 Q1015.82 67.4314 1021.85 67.4314 Q1027.81 67.4314 1031.29 62.7323 Q1034.77 58.0333 1034.77 49.9314 Q1034.77 41.8701 1031.29 37.1711 Q1027.81 32.4315 1021.85 32.4315 M1021.85 26.1121 Q1031.57 26.1121 1037.12 32.4315 Q1042.67 38.7509 1042.67 49.9314 Q1042.67 61.0714 1037.12 67.4314 Q1031.57 73.7508 1021.85 73.7508 Q1012.09 73.7508 1006.54 67.4314 Q1001.03 61.0714 1001.03 49.9314 Q1001.03 38.7509 1006.54 32.4315 Q1012.09 26.1121 1021.85 26.1121 Z" fill="#000000" fill-rule="nonzero" fill-opacity="1" /><path clip-path="url(#clip330)" d="M1111.26 34.0924 L1111.26 9.54393 L1118.71 9.54393 L1118.71 72.576 L1111.26 72.576 L1111.26 65.7705 Q1108.91 69.8214 1105.3 71.8063 Q1101.74 73.7508 1096.71 73.7508 Q1088.49 73.7508 1083.3 67.1883 Q1078.16 60.6258 1078.16 49.9314 Q1078.16 39.2371 1083.3 32.6746 Q1088.49 26.1121 1096.71 26.1121 Q1101.74 26.1121 1105.3 28.0971 Q1108.91 30.0415 1111.26 34.0924 M1085.86 49.9314 Q1085.86 58.1548 1089.22 62.8538 Q1092.62 67.5124 1098.54 67.5124 Q1104.45 67.5124 1107.85 62.8538 Q1111.26 58.1548 1111.26 49.9314 Q1111.26 41.7081 1107.85 37.0496 Q1104.45 32.3505 1098.54 32.3505 Q1092.62 32.3505 1089.22 37.0496 Q1085.86 41.7081 1085.86 49.9314 Z" fill="#000000" fill-rule="nonzero" fill-opacity="1" /><path clip-path="url(#clip330)" d="M1172.87 48.0275 L1172.87 51.6733 L1138.6 51.6733 Q1139.09 59.3701 1143.22 63.421 Q1147.39 67.4314 1154.8 67.4314 Q1159.1 67.4314 1163.11 66.3781 Q1167.16 65.3249 1171.13 63.2184 L1171.13 70.267 Q1167.12 71.9684 1162.9 72.8596 Q1158.69 73.7508 1154.36 73.7508 Q1143.5 73.7508 1137.14 67.4314 Q1130.82 61.1119 1130.82 50.3365 Q1130.82 39.1965 1136.82 32.6746 Q1142.85 26.1121 1153.06 26.1121 Q1162.22 26.1121 1167.52 32.0264 Q1172.87 37.9003 1172.87 48.0275 M1165.42 45.84 Q1165.33 39.7232 1161.97 36.0774 Q1158.65 32.4315 1153.14 32.4315 Q1146.9 32.4315 1143.14 35.9558 Q1139.41 39.4801 1138.84 45.8805 L1165.42 45.84 Z" fill="#000000" fill-rule="nonzero" fill-opacity="1" /><path clip-path="url(#clip330)" d="M1230.35 76.7889 Q1227.19 84.8907 1224.19 87.3618 Q1221.2 89.8329 1216.17 89.8329 L1210.22 89.8329 L1210.22 83.5945 L1214.59 83.5945 Q1217.67 83.5945 1219.37 82.1361 Q1221.08 80.6778 1223.14 75.2496 L1224.48 71.8468 L1206.13 27.2059 L1214.03 27.2059 L1228.2 62.6918 L1242.38 27.2059 L1250.28 27.2059 L1230.35 76.7889 Z" fill="#000000" fill-rule="nonzero" fill-opacity="1" /><path clip-path="url(#clip330)" d="M1287.92 34.9026 L1339.85 34.9026 L1339.85 41.7081 L1287.92 41.7081 L1287.92 34.9026 M1287.92 51.4303 L1339.85 51.4303 L1339.85 58.3168 L1287.92 58.3168 L1287.92 51.4303 Z" fill="#000000" fill-rule="nonzero" fill-opacity="1" /><path clip-path="url(#clip330)" d="M1420.54 27.2059 L1404.14 49.2833 L1421.39 72.576 L1412.6 72.576 L1399.4 54.752 L1386.19 72.576 L1377.4 72.576 L1395.02 48.8377 L1378.9 27.2059 L1387.69 27.2059 L1399.72 43.369 L1411.75 27.2059 L1420.54 27.2059 Z" fill="#000000" fill-rule="nonzero" fill-opacity="1" /><path clip-path="url(#clip330)" d="M1462.83 12.096 L1484.83 34.6595 L1476.69 34.6595 L1458.86 18.6585 L1441.04 34.6595 L1432.9 34.6595 L1454.89 12.096 L1462.83 12.096 Z" fill="#000000" fill-rule="nonzero" fill-opacity="1" /><path clip-path="url(#clip330)" d="M1509.54 65.6895 L1538.1 65.6895 L1538.1 72.576 L1499.7 72.576 L1499.7 65.6895 Q1504.36 60.8689 1512.38 52.7671 Q1520.44 44.6248 1522.5 42.2752 Q1526.43 37.8598 1527.97 34.8216 Q1529.55 31.7429 1529.55 28.7857 Q1529.55 23.9651 1526.15 20.927 Q1522.79 17.8888 1517.36 17.8888 Q1513.51 17.8888 1509.22 19.2256 Q1504.96 20.5624 1500.1 23.2765 L1500.1 15.0127 Q1505.04 13.0277 1509.34 12.015 Q1513.63 11.0023 1517.2 11.0023 Q1526.59 11.0023 1532.18 15.7013 Q1537.78 20.4004 1537.78 28.2591 Q1537.78 31.9859 1536.36 35.3482 Q1534.98 38.6699 1531.29 43.2069 Q1530.28 44.3817 1524.85 50.0125 Q1519.42 55.6027 1509.54 65.6895 Z" fill="#000000" fill-rule="nonzero" fill-opacity="1" /><polyline clip-path="url(#clip332)" style="stroke:#009af9; stroke-linecap:round; stroke-linejoin:round; stroke-width:4; stroke-opacity:1; fill:none" points="279.351,150.518 288.018,170.282 296.685,189.847 305.352,209.213 314.019,228.381 322.686,247.351 331.353,266.121 340.021,284.693 348.688,303.067 357.355,321.242 366.022,339.218 374.689,356.995 383.356,374.574 392.023,391.955 400.69,409.136 409.357,426.119 418.024,442.904 426.691,459.489 435.358,475.876 444.025,492.065 452.692,508.055 461.359,523.846 470.026,539.439 478.693,554.832 487.36,570.028 496.027,585.025 504.694,599.823 513.361,614.422 522.028,628.823 530.695,643.025 539.362,657.028 548.029,670.833 556.696,684.44 565.363,697.847 574.03,711.056 582.697,724.067 591.364,736.878 600.031,749.492 608.698,761.906 617.365,774.122 626.032,786.139 634.699,797.958 643.366,809.578 652.033,820.999 660.7,832.222 669.367,843.246 678.034,854.071 686.701,864.698 695.368,875.126 704.035,885.356 712.702,895.386 721.369,905.219 730.036,914.852 738.703,924.287 747.37,933.524 756.037,942.561 764.704,951.401 773.371,960.041 782.038,968.483 790.705,976.726 799.372,984.771 808.039,992.617 816.706,1000.26 825.373,1007.71 834.04,1014.96 842.707,1022.01 851.374,1028.87 860.041,1035.52 868.708,1041.98 877.375,1048.23 886.042,1054.29 894.709,1060.15 903.376,1065.81 912.043,1071.27 920.71,1076.54 929.377,1081.6 938.044,1086.47 946.711,1091.14 955.378,1095.61 964.045,1099.88 972.712,1103.95 981.379,1107.82 990.046,1111.5 998.713,1114.97 1007.38,1118.25 1016.05,1121.33 1024.71,1124.21 1033.38,1126.89 1042.05,1129.37 1050.72,1131.66 1059.38,1133.74 1068.05,1135.63 1076.72,1137.32 1085.38,1138.81 1094.05,1140.1 1102.72,1141.19 1111.38,1142.09 1120.05,1142.78 1128.72,1143.28 1137.39,1143.58 1146.05,1143.68 1154.72,1143.58 1163.39,1143.28 1172.05,1142.78 1180.72,1142.09 1189.39,1141.19 1198.05,1140.1 1206.72,1138.81 1215.39,1137.32 1224.06,1135.63 1232.72,1133.74 1241.39,1131.66 1250.06,1129.37 1258.72,1126.89 1267.39,1124.21 1276.06,1121.33 1284.72,1118.25 1293.39,1114.97 1302.06,1111.5 1310.73,1107.82 1319.39,1103.95 1328.06,1099.88 1336.73,1095.61 1345.39,1091.14 1354.06,1086.47 1362.73,1081.6 1371.39,1076.54 1380.06,1071.27 1388.73,1065.81 1397.4,1060.15 1406.06,1054.29 1414.73,1048.23 1423.4,1041.98 1432.06,1035.52 1440.73,1028.87 1449.4,1022.01 1458.07,1014.96 1466.73,1007.71 1475.4,1000.26 1484.07,992.617 1492.73,984.771 1501.4,976.726 1510.07,968.483 1518.73,960.041 1527.4,951.401 1536.07,942.561 1544.74,933.524 1553.4,924.287 1562.07,914.852 1570.74,905.219 1579.4,895.386 1588.07,885.356 1596.74,875.126 1605.4,864.698 1614.07,854.071 1622.74,843.246 1631.41,832.222 1640.07,820.999 1648.74,809.578 1657.41,797.958 1666.07,786.139 1674.74,774.122 1683.41,761.906 1692.07,749.492 1700.74,736.878 1709.41,724.067 1718.08,711.056 1726.74,697.847 1735.41,684.44 1744.08,670.833 1752.74,657.028 1761.41,643.025 1770.08,628.823 1778.74,614.422 1787.41,599.823 1796.08,585.025 1804.75,570.028 1813.41,554.832 1822.08,539.439 1830.75,523.846 1839.41,508.055 1848.08,492.065 1856.75,475.876 1865.41,459.489 1874.08,442.904 1882.75,426.119 1891.42,409.136 1900.08,391.955 1908.75,374.574 1917.42,356.995 1926.08,339.218 1934.75,321.242 1943.42,303.067 1952.08,284.693 1960.75,266.121 1969.42,247.351 1978.09,228.381 1986.75,209.213 1995.42,189.847 2004.09,170.282 2012.75,150.518 "/>
<path clip-path="url(#clip330)" d="M1630.07 259.495 L2003.51 259.495 L2003.51 155.815 L1630.07 155.815  Z" fill="#ffffff" fill-rule="evenodd" fill-opacity="1"/>
<polyline clip-path="url(#clip330)" style="stroke:#000000; stroke-linecap:round; stroke-linejoin:round; stroke-width:4; stroke-opacity:1; fill:none" points="1630.07,259.495 2003.51,259.495 2003.51,155.815 1630.07,155.815 1630.07,259.495 "/>
<polyline clip-path="url(#clip330)" style="stroke:#009af9; stroke-linecap:round; stroke-linejoin:round; stroke-width:4; stroke-opacity:1; fill:none" points="1650.49,207.655 1772.98,207.655 "/>
<path clip-path="url(#clip330)" d="M1807.24 227.342 Q1805.43 231.972 1803.72 233.384 Q1802.01 234.796 1799.14 234.796 L1795.73 234.796 L1795.73 231.231 L1798.23 231.231 Q1799.99 231.231 1800.96 230.398 Q1801.94 229.564 1803.12 226.462 L1803.88 224.518 L1793.4 199.009 L1797.91 199.009 L1806.01 219.287 L1814.11 199.009 L1818.63 199.009 L1807.24 227.342 Z" fill="#000000" fill-rule="nonzero" fill-opacity="1" /><path clip-path="url(#clip330)" d="M1840.13 203.407 L1869.81 203.407 L1869.81 207.296 L1840.13 207.296 L1840.13 203.407 M1840.13 212.851 L1869.81 212.851 L1869.81 216.787 L1840.13 216.787 L1840.13 212.851 Z" fill="#000000" fill-rule="nonzero" fill-opacity="1" /><path clip-path="url(#clip330)" d="M1915.92 199.009 L1906.54 211.625 L1916.4 224.935 L1911.38 224.935 L1903.83 214.749 L1896.29 224.935 L1891.27 224.935 L1901.33 211.37 L1892.12 199.009 L1897.14 199.009 L1904.02 208.245 L1910.89 199.009 L1915.92 199.009 Z" fill="#000000" fill-rule="nonzero" fill-opacity="1" /><path clip-path="url(#clip330)" d="M1940.08 190.375 L1952.65 203.268 L1948 203.268 L1937.82 194.125 L1927.63 203.268 L1922.98 203.268 L1935.55 190.375 L1940.08 190.375 Z" fill="#000000" fill-rule="nonzero" fill-opacity="1" /><path clip-path="url(#clip330)" d="M1966.77 220.999 L1983.09 220.999 L1983.09 224.935 L1961.15 224.935 L1961.15 220.999 Q1963.81 218.245 1968.39 213.615 Q1973 208.962 1974.18 207.62 Q1976.43 205.097 1977.31 203.361 Q1978.21 201.601 1978.21 199.912 Q1978.21 197.157 1976.26 195.421 Q1974.34 193.685 1971.24 193.685 Q1969.04 193.685 1966.59 194.449 Q1964.16 195.213 1961.38 196.763 L1961.38 192.041 Q1964.2 190.907 1966.66 190.328 Q1969.11 189.75 1971.15 189.75 Q1976.52 189.75 1979.71 192.435 Q1982.91 195.12 1982.91 199.611 Q1982.91 201.74 1982.1 203.662 Q1981.31 205.56 1979.2 208.152 Q1978.63 208.824 1975.52 212.041 Q1972.42 215.236 1966.77 220.999 Z" fill="#000000" fill-rule="nonzero" fill-opacity="1" /></svg>
